<?xml version="1.0" standalone="no"?>
<!DOCTYPE svg PUBLIC "-//W3C//DTD SVG 20010904//EN"
 "http://www.w3.org/TR/2001/REC-SVG-20010904/DTD/svg10.dtd">
<svg version="1.0" xmlns="http://www.w3.org/2000/svg"
 width="38.000000pt" height="42.000000pt" viewBox="0 0 38.000000 42.000000"
 preserveAspectRatio="xMidYMid meet">

<g transform="translate(0.000000,42.000000) scale(0.100000,-0.100000)"
fill="#000000" stroke="none">
<path d="M125 318 c-27 -12 -53 -26 -56 -31 -10 -15 2 -151 16 -172 7 -11 34
-31 59 -45 l46 -25 46 25 c25 13 52 33 59 44 14 22 26 158 16 173 -8 11 -105
53 -123 53 -7 -1 -35 -10 -63 -22z m115 -50 c0 -10 -6 -18 -12 -18 -7 -1 -3
-9 10 -19 41 -35 23 -81 -31 -81 -29 0 -29 1 -24 41 3 23 2 38 -3 33 -5 -5
-10 -22 -12 -39 -2 -22 -9 -31 -25 -33 -13 -2 -23 1 -23 7 0 6 7 11 15 11 18
0 18 1 6 32 -11 29 10 63 33 55 10 -4 21 4 33 23 18 30 33 25 33 -12z"/>
<path d="M206 213 c-3 -4 -6 -15 -6 -25 0 -24 33 -21 38 3 3 17 -21 33 -32 22z"/>
</g>
</svg>
